<svg xmlns:dc="http://purl.org/dc/elements/1.1/" xmlns:cc="http://creativecommons.org/ns#" xmlns:rdf="http://www.w3.org/1999/02/22-rdf-syntax-ns#" xmlns:svg="http://www.w3.org/2000/svg" xmlns="http://www.w3.org/2000/svg" xmlns:sodipodi="http://sodipodi.sourceforge.net/DTD/sodipodi-0.dtd" xmlns:inkscape="http://www.inkscape.org/namespaces/inkscape" version="1.1" x="0px" y="0px" viewBox="0 0 100 125"><g transform="translate(0,-952.36218)"><path d="m 78.284283,974.07786 c -2.34307,-2.3431 -6.14214,-2.3431 -8.48528,0 l -19.79906,19.7991 -19.79899,-19.799 c -2.34314,-2.3431 -6.14207,-2.3432 -8.48528,0 -2.34307,2.3431 -2.34315,6.1421 0,8.4853 l 19.79897,19.79904 -19.7989,19.7989 c -2.34314,2.3431 -2.34307,6.1422 -10e-6,8.4853 2.34321,2.3432 6.14215,2.3431 8.48529,0 l 19.79891,-19.7989 19.799,19.7989 c 2.34314,2.3432 6.1422,2.3431 8.48528,0 2.34321,-2.3432 2.34313,-6.1421 0,-8.4853 l -19.799,-19.7989 19.79906,-19.79914 c 2.34314,-2.3431 2.34322,-6.1421 1e-5,-8.4853 z" style="text-indent:0;text-transform:none;direction:ltr;block-progression:tb;baseline-shift:baseline;color:#000000;enable-background:accumulate;" fill="#000000" fill-opacity="1" marker="none" visibility="visible" display="inline" overflow="visible"/></g><text x="0" y="115" fill="#000000" font-size="5px" font-weight="bold" font-family="'Helvetica Neue', Helvetica, Arial-Unicode, Arial, Sans-serif">Created by Aybige</text><text x="0" y="120" fill="#000000" font-size="5px" font-weight="bold" font-family="'Helvetica Neue', Helvetica, Arial-Unicode, Arial, Sans-serif">from the Noun Project</text></svg>