<svg xmlns="http://www.w3.org/2000/svg" xmlns:xlink="http://www.w3.org/1999/xlink" version="1.1" x="0px" y="0px" viewBox="-5.0 -10.0 110.0 135.0" style="enable-background:new 0 0 100 100;" xml:space="preserve"><style type="text/css">
	.st0{fill-rule:evenodd;clip-rule:evenodd;}
</style><path class="st0" d="M58.145,33.754c0-2.666,4.05-2.666,4.05,0v32.492c0,2.666-4.05,2.666-4.05,0V33.754L58.145,33.754z   M37.805,33.754c0-2.666,4.05-2.666,4.05,0v32.492c0,2.666-4.05,2.666-4.05,0V33.754L37.805,33.754z M10.01,50  c0,22.086,17.904,39.99,39.99,39.99S89.99,72.086,89.99,50S72.086,10.01,50,10.01S10.01,27.914,10.01,50z"/><text x="0.0" y="117.5" font-size="5.0" font-weight="bold" font-family="Arbeit Regular, Helvetica, Arial-Unicode, Arial, Sans-serif" fill="#000000">Created by Good Women</text><text x="0.0" y="122.5" font-size="5.0" font-weight="bold" font-family="Arbeit Regular, Helvetica, Arial-Unicode, Arial, Sans-serif" fill="#000000">from Noun Project</text></svg>