<svg xmlns="http://www.w3.org/2000/svg" xmlns:xlink="http://www.w3.org/1999/xlink" version="1.1" x="0px" y="0px" viewBox="0 0 90 112.5" style="enable-background:new 0 0 90 90;" xml:space="preserve"><path style="" d="M45,5C22.9086304,5,5,22.9085693,5,45c0,22.0913696,17.9086304,40,40,40  c22.0914307,0,40-17.9086304,40-40C85,22.9085693,67.0914307,5,45,5z M51.8771973,46.1676636L29.9387817,62.1350098  c-0.4505005,0.3277588-1.008606,0.3720093-1.5050049,0.1193237c-0.4963989-0.2526245-0.7890625-0.7301025-0.7890625-1.2871704  V29.0327759c0-0.5570068,0.2926636-1.0343628,0.7890625-1.2871704c0.4963989-0.2526245,1.0546875-0.2084351,1.5050049,0.1193848  l21.9384155,15.9673462c0.385498,0.2806396,0.5943604,0.690918,0.5943604,1.1676636  C52.4715576,45.4768677,52.2626953,45.8870239,51.8771973,46.1676636z M62.3554688,60.75  c0,0.9179688-0.7487183,1.6665649-1.666687,1.6665649h-5.112854c-0.9179688,0-1.666687-0.7487793-1.666687-1.6665649v-31.5  c0-0.9179688,0.7487183-1.666748,1.666687-1.666748h5.112854c0.9179688,0,1.666687,0.7487793,1.666687,1.666748V60.75z" fill-rule="evenodd" clip-rule="evenodd"/><text x="0" y="105" fill="#000000" font-size="5px" font-weight="bold" font-family="'Helvetica Neue', Helvetica, Arial-Unicode, Arial, Sans-serif">Created by ahmad dani</text><text x="0" y="110" fill="#000000" font-size="5px" font-weight="bold" font-family="'Helvetica Neue', Helvetica, Arial-Unicode, Arial, Sans-serif">from the Noun Project</text></svg>