<svg xmlns="http://www.w3.org/2000/svg" xmlns:xlink="http://www.w3.org/1999/xlink" version="1.1" x="0px" y="0px" viewBox="0 0 32 40" style="enable-background:new 0 0 32 32;" xml:space="preserve"><path d="M16,4C9.3725586,4,4,9.3725586,4,16c0,6.6273804,5.3725586,12,12,12s12-5.3726196,12-12C28,9.3725586,22.6274414,4,16,4z   M20.7063599,16.7077026l-3.5891724,3.5891724c-0.1953125,0.1953125-0.4511719,0.2929688-0.7070313,0.2929688  s-0.5117188-0.0976563-0.7070313-0.2929688c-0.3906317-0.390625-0.3906317-1.0234375,0-1.4140625L17.5859375,17H12  c-0.5527344,0-1-0.4477539-1-1s0.4472656-1,1-1h5.5859375l-1.8828125-1.8828125  c-0.3906317-0.390625-0.3906317-1.0234375,0-1.4140625c0.390625-0.390625,1.0234375-0.390625,1.4140625,0l3.5891724,3.5891724  c0.0925293,0.0923462,0.1658325,0.203064,0.2166138,0.3258057c0.1010132,0.2442627,0.1010132,0.5195313,0,0.7637939  C20.8721924,16.5046387,20.7988892,16.6153564,20.7063599,16.7077026z"/><text x="0" y="47" fill="#000000" font-size="5px" font-weight="bold" font-family="'Helvetica Neue', Helvetica, Arial-Unicode, Arial, Sans-serif">Created by Royyan Wijaya</text><text x="0" y="52" fill="#000000" font-size="5px" font-weight="bold" font-family="'Helvetica Neue', Helvetica, Arial-Unicode, Arial, Sans-serif">from the Noun Project</text></svg>